<?xml version="1.0" encoding="UTF-8"?>
<svg id="a" xmlns="http://www.w3.org/2000/svg" viewBox="0 0 338.81 332.18">
  <defs>
    <style>
      .b {
        fill: #ff3ba5;
      }

      .c {
        fill: #f0e000;
      }

      .d {
        fill: #0080ff;
      }

      .e {
        fill: #ff4a4a;
      }

      .f {
        fill: #00ff6e;
      }
    </style>
  </defs>
  <path class="e" d="M1.45,128.98c6.73-38.52,60.89-49.31,98.8-30.24,37.91,19.08,78.62,50.64,65.88,72.32-15.52,26.41-45.55-2.2-83.83-5.65S-9.5,191.63,1.45,128.98Z"/>
  <path class="d" d="M197.03,330.15c-22.31,9.54-13.58-16.9-46.53-28.18-40.46-13.85-19.96-68.18,11.7-112.66,8.58-12.06,20.49,4.96,36.02,25.1,15.54,20.15,62.99,88.28-1.2,115.74h0Z"/>
  <path class="c" d="M135.54,2.59c13.85-11.12,66.51,15.15,70.2,49.64,3.69,34.49-11.68,88.02-21.79,89.5-10.12,1.48-21.03-4.53-38.55-24.23S95.21,34.96,135.54,2.59h0Z"/>
  <path class="f" d="M68.47,224.98c-42.17-4.08-56.67-28.99-26.42-37.63s70.01-10.46,90.37,2.64c18.55,11.93,9,22.49-7.64,34.82-57.65,42.71-27.27,2.98-56.31.17h0Z"/>
  <path class="b" d="M186.93,175.54c-2.01-28.29,33.35,12.44,65.43-4.37,19.57-10.25,35.72-13.32,69.11,33.77,6.21,8.75-9.98,19.46-34.09,29.99-24.12,10.53-96.46-3.27-100.44-59.39h-.01Z"/>
  <polygon points="338.81 64.35 295.23 64.35 295.23 20.77 261.21 20.77 261.21 64.35 217.64 64.35 217.64 98.36 261.21 98.36 261.21 141.94 295.23 141.94 295.23 98.36 338.81 98.36 338.81 64.35"/>
</svg>